<?xml version="1.0" standalone="no"?>
<!DOCTYPE svg PUBLIC "-//W3C//DTD SVG 20010904//EN"
 "http://www.w3.org/TR/2001/REC-SVG-20010904/DTD/svg10.dtd">
<svg version="1.0" xmlns="http://www.w3.org/2000/svg"
 width="508.000000pt" height="491.000000pt" viewBox="0 0 508.000000 491.000000"
 preserveAspectRatio="xMidYMid meet">

<g transform="translate(0.000000,491.000000) scale(0.100000,-0.100000)"
fill="#000000" stroke="none">
<path d="M2750 4825 c0 -8 4 -15 10 -15 5 0 7 7 4 15 -4 8 -8 15 -10 15 -2 0
-4 -7 -4 -15z"/>
<path d="M1865 4660 c-22 -24 -13 -50 17 -50 39 0 52 14 37 38 -19 30 -34 34
-54 12z"/>
<path d="M1680 4620 c0 -5 5 -10 10 -10 6 0 10 5 10 10 0 6 -4 10 -10 10 -5 0
-10 -4 -10 -10z"/>
<path d="M2840 4580 c0 -5 5 -10 11 -10 5 0 7 5 4 10 -3 6 -8 10 -11 10 -2 0
-4 -4 -4 -10z"/>
<path d="M2490 4552 c0 -17 -278 -30 -372 -17 -31 5 -48 3 -48 -4 0 -6 15 -8
38 -6 29 4 33 2 19 -6 -9 -5 -21 -8 -26 -4 -5 3 -11 0 -13 -6 -2 -6 -22 -12
-45 -13 -23 0 -39 -4 -37 -8 3 -4 -1 -5 -9 -3 -7 3 -21 -3 -31 -14 -23 -25
-110 -55 -139 -47 -11 3 -26 2 -31 -3 -6 -4 -40 -18 -76 -31 -116 -42 -305
-145 -375 -205 -16 -14 2 -6 42 19 82 51 193 109 199 104 2 -3 -31 -24 -73
-47 -107 -60 -194 -119 -291 -197 -78 -62 -182 -174 -182 -195 0 -5 10 -9 23
-9 14 0 41 19 72 50 30 30 58 50 71 50 13 0 36 11 52 25 l30 25 66 -30 c36
-17 73 -30 82 -30 11 0 -1 -19 -36 -60 -29 -33 -57 -60 -63 -60 -6 0 0 11 13
25 13 14 19 25 14 25 -9 0 -50 -40 -104 -104 -24 -28 -24 -29 -3 -24 16 4 20
2 16 -8 -3 -9 -21 -14 -47 -14 -50 0 -59 6 -45 31 7 13 6 19 -2 19 -6 0 -13
-9 -16 -20 -6 -23 -14 -25 -31 -8 -6 6 -15 8 -19 4 -5 -4 0 -14 11 -21 22 -16
12 -38 -14 -30 -13 4 -23 -3 -37 -25 -17 -31 -20 -31 -70 -25 l-51 6 -32 -45
c-17 -25 -33 -46 -36 -46 -6 0 24 70 39 89 6 9 1 7 -12 -4 -43 -37 -164 -263
-206 -385 -32 -92 -52 -192 -61 -305 -6 -75 -5 -85 10 -85 9 0 16 2 16 4 0 27
36 182 59 251 75 229 167 445 191 445 6 0 10 6 10 13 0 11 14 11 71 3 52 -7
77 -6 90 2 11 7 19 8 19 3 0 -6 -24 -83 -53 -173 -73 -223 -162 -536 -154
-544 16 -17 36 12 66 95 18 50 37 94 43 97 7 5 9 -2 4 -20 -3 -14 -2 -26 3
-26 4 0 11 19 15 43 7 42 74 246 106 322 14 33 33 50 104 93 87 53 105 74 47
54 -32 -11 -44 1 -14 12 33 13 203 109 199 113 -2 2 -49 -19 -105 -47 -77 -38
-108 -49 -127 -44 -22 6 -24 8 -10 16 9 5 28 20 43 34 27 25 43 31 43 15 0
-11 88 25 105 41 7 7 -4 9 -33 5 -53 -7 -52 9 4 40 23 14 32 23 22 23 -10 0
-18 5 -18 10 0 6 7 10 15 10 8 0 12 6 9 14 -8 20 50 90 106 130 49 36 110 61
110 45 0 -5 -5 -9 -12 -9 -6 0 -9 -2 -6 -5 5 -6 86 19 178 54 64 24 60 24 60
11 0 -5 -5 -10 -12 -10 -6 0 -36 -12 -67 -27 -59 -28 -57 -41 5 -24 28 8 41 7
58 -5 29 -18 36 -10 36 38 0 32 3 38 21 38 29 0 111 22 104 28 -2 3 0 11 6 18
10 12 4 94 -6 94 -2 0 -25 -14 -50 -31 -57 -38 -97 -48 -196 -49 -53 0 -81 -5
-95 -16 -18 -14 -16 -15 30 -9 57 8 56 -11 -2 -21 -20 -3 -52 -15 -70 -25 -40
-23 -43 -23 -36 -5 3 8 16 17 30 20 13 4 23 10 22 14 -1 4 1 16 6 27 8 23 162
101 216 111 82 14 186 55 173 68 -10 10 63 -22 127 -55 60 -31 148 -51 136
-31 -4 7 -2 12 4 12 6 0 8 5 5 10 -9 15 4 12 20 -4 12 -12 5 -18 -48 -41 -59
-27 -65 -28 -129 -17 -63 11 -70 10 -87 -7 -20 -20 -22 -36 -7 -59 7 -12 23
-12 109 4 20 4 27 2 27 -10 0 -9 6 -13 14 -10 7 3 20 -6 29 -20 26 -40 51 -41
120 -6 34 17 53 24 43 15 -11 -8 -24 -15 -29 -15 -4 0 -5 -5 -1 -12 4 -7 3 -8
-4 -4 -6 3 -15 -2 -21 -12 -6 -11 -19 -18 -33 -17 -36 3 -40 -4 -18 -35 18
-25 26 -28 52 -23 22 4 29 3 24 -5 -5 -8 6 -14 32 -18 35 -5 41 -11 58 -52 10
-26 18 -50 16 -54 -1 -5 3 -8 9 -8 5 0 8 -4 4 -9 -3 -5 -1 -12 5 -16 6 -4 8
-11 5 -16 -4 -5 -2 -9 3 -9 4 0 23 -39 42 -87 46 -121 75 -150 100 -103 28 53
48 -2 25 -70 -9 -27 -14 -54 -11 -59 4 -5 2 -13 -4 -16 -8 -5 -6 -14 4 -29 13
-20 12 -24 -7 -36 -21 -12 -21 -12 -7 5 14 17 13 18 -5 11 -16 -6 -18 -5 -7 5
14 15 16 29 3 29 -5 0 -13 -9 -16 -20 -3 -11 -11 -20 -16 -20 -6 0 -7 6 -3 13
3 6 -5 0 -20 -15 -27 -28 -36 -49 -12 -29 10 9 15 8 19 -2 3 -9 -4 -13 -22
-12 -14 0 -27 -4 -28 -9 -1 -5 -7 -12 -14 -17 -8 -4 -11 -11 -7 -14 3 -4 19 1
35 10 l28 17 -25 -21 c-14 -11 -36 -21 -50 -21 -19 0 -21 -3 -11 -9 11 -7 -12
-40 -105 -147 -150 -174 -167 -196 -153 -204 7 -5 3 -20 -10 -44 -25 -43 -25
-46 -7 -46 18 0 145 138 152 166 6 22 47 48 58 37 3 -3 -10 -27 -29 -53 -19
-26 -35 -50 -35 -54 0 -23 37 8 118 97 103 113 235 246 206 207 -34 -46 -107
-132 -179 -208 -39 -43 -64 -77 -57 -80 23 -7 104 73 255 253 27 33 59 62 71
65 12 4 21 14 21 25 0 13 7 19 18 19 193 -16 197 -16 191 0 -3 9 -1 16 5 16 6
0 11 -7 11 -16 0 -13 8 -15 37 -12 30 4 41 0 58 -20 17 -20 34 -26 78 -30 31
-2 57 -9 57 -14 0 -5 10 -4 21 3 13 6 19 7 15 1 -4 -7 11 -10 41 -9 47 1 47 1
60 -41 6 -23 9 -42 5 -42 -4 0 -40 7 -81 15 -40 9 -76 14 -78 11 -3 -2 27 -15
66 -27 39 -13 69 -24 67 -26 -2 -2 -45 8 -97 22 -109 29 -99 27 -99 16 0 -8
103 -41 196 -62 l51 -12 12 -56 c6 -31 18 -82 25 -113 l14 -56 -42 1 c-54 2
-118 -27 -139 -63 -44 -74 -1 -141 118 -180 99 -32 99 -32 69 -93 l-26 -52 36
39 c20 22 36 34 36 27 0 -19 -61 -73 -77 -67 -7 3 -13 0 -13 -6 0 -16 -96 -3
-127 17 -27 18 -53 14 -53 -9 0 -17 37 -42 81 -54 19 -4 34 -15 34 -23 0 -11
-15 -14 -65 -14 l-65 0 2 30 2 30 -20 -28 c-22 -29 -43 -28 -32 1 6 15 5 15
-10 3 -10 -8 -16 -19 -14 -24 6 -19 -43 -58 -66 -52 -17 5 -19 4 -7 -4 13 -9
12 -12 -4 -24 -10 -8 -29 -12 -42 -9 -17 3 -30 -3 -42 -18 -11 -13 -29 -25
-41 -27 -12 -2 -41 -12 -64 -22 -23 -10 -70 -27 -104 -36 -57 -16 -63 -20 -63
-44 0 -15 -9 -34 -20 -44 -11 -9 -20 -25 -20 -34 1 -17 1 -17 14 -1 16 21 26
13 26 -20 0 -14 3 -23 6 -19 4 3 15 -4 24 -16 20 -25 11 -47 -20 -47 -24 0
-38 -19 -54 -73 -19 -63 -39 -106 -51 -111 -6 -2 -22 19 -35 48 -30 63 -34 66
-90 66 -34 -1 -41 -3 -28 -10 15 -9 15 -13 -5 -51 -16 -30 -19 -43 -10 -46 9
-3 10 -10 3 -24 -13 -23 -4 -25 17 -4 8 9 17 14 20 11 8 -8 -33 -42 -46 -38
-8 3 -10 -4 -5 -25 4 -15 7 -30 6 -33 0 -21 -3 -30 -9 -28 -5 0 -16 -2 -25 -6
-13 -6 -15 -11 -6 -25 14 -23 2 -90 -17 -98 -8 -3 -12 -10 -8 -16 20 -33 -35
24 -172 176 l-153 171 76 52 c104 72 172 136 172 162 0 47 -49 18 -180 -107
-52 -50 -99 -92 -104 -94 -9 -3 237 -282 278 -316 21 -18 20 -28 -4 -41 -25
-13 -46 -4 -31 14 7 9 5 20 -6 37 -21 30 -127 151 -216 245 -61 65 -66 73 -47
79 11 3 20 11 20 16 0 13 -24 11 -38 -3 -7 -7 -12 -10 -12 -7 0 25 56 251 86
344 24 78 33 120 26 127 -6 6 -19 -14 -37 -61 -29 -76 -45 -90 -45 -40 0 27
-2 30 -15 19 -8 -7 -15 -22 -15 -34 0 -11 -9 -41 -20 -65 -16 -34 -24 -42 -40
-38 -16 4 -22 -2 -30 -36 -40 -156 -65 -192 -36 -52 14 65 14 86 0 73 -3 -3
-12 -42 -21 -86 l-16 -80 -221 -4 c-162 -3 -256 0 -353 12 -73 9 -135 18 -138
22 -16 15 -138 289 -151 338 -16 60 -17 61 -36 64 -22 3 -39 17 -33 27 4 5 -1
9 -9 9 -28 0 -18 -51 45 -221 33 -90 62 -169 64 -176 9 -27 84 -63 175 -83 52
-11 100 -23 105 -25 13 -6 -132 4 -162 12 -22 5 -23 2 -22 -43 0 -74 14 -145
30 -155 23 -15 41 -10 36 9 -3 9 -8 39 -12 66 l-7 49 64 -7 c93 -10 342 -33
426 -40 42 -4 72 -2 72 3 0 12 -20 18 -85 27 -27 3 -57 10 -65 15 -18 10 86
12 154 3 43 -6 47 -9 43 -30 -5 -28 10 -31 29 -7 12 17 13 16 23 -8 10 -27 53
-49 96 -49 15 0 28 -11 41 -35 10 -19 23 -35 27 -35 5 0 67 -59 138 -131 71
-73 132 -129 136 -126 3 3 -42 57 -101 118 -58 62 -106 118 -106 123 0 6 51
-41 113 -106 61 -64 118 -118 126 -120 11 -3 11 -8 3 -23 -6 -11 -22 -46 -36
-79 -35 -79 -119 -197 -124 -173 -2 10 1 31 6 46 l10 28 -37 -13 c-27 -9 -38
-9 -43 -1 -6 9 -8 8 -8 -1 0 -10 -11 -13 -37 -10 -29 2 -38 -1 -38 -12 0 -8
-7 -18 -15 -21 -11 -4 -9 -11 12 -32 15 -15 23 -27 19 -27 -5 0 -14 7 -21 15
-20 24 -30 18 -30 -19 0 -48 -48 -101 -81 -91 -13 5 -36 8 -51 7 -18 0 -32 6
-38 19 -13 23 -40 25 -40 4 0 -12 -4 -13 -19 -6 -27 15 -106 82 -106 91 0 5
-4 12 -9 17 -5 5 -6 3 -2 -4 11 -19 -5 -15 -34 7 -34 27 -48 25 -23 -2 40 -45
37 -52 -7 -19 -77 59 -74 58 -67 38 6 -16 5 -16 -18 -1 -13 9 -27 24 -30 35
-7 20 -31 25 -53 11 -8 -6 -3 -15 20 -32 17 -13 37 -23 44 -23 7 0 11 -4 8 -9
-3 -4 2 -11 10 -14 9 -3 16 -10 16 -15 0 -13 -37 7 -87 47 -23 19 -47 34 -53
34 -23 0 11 -30 150 -133 74 -56 144 -110 154 -119 11 -10 28 -20 38 -24 10
-3 18 -9 18 -13 0 -13 49 -31 84 -31 40 0 193 -47 202 -62 5 -8 1 -9 -12 -4
-43 17 -262 56 -310 56 -17 0 -34 4 -40 9 -15 16 -137 82 -141 77 -2 -2 27
-23 66 -47 38 -23 68 -46 66 -50 -3 -3 -95 -7 -205 -8 -182 -1 -206 -3 -277
-26 -43 -13 -97 -27 -120 -31 -46 -7 -83 -28 -71 -40 13 -13 196 24 253 51 47
22 74 27 184 32 158 7 183 2 179 -35 -4 -39 -57 -43 -103 -8 -39 30 -74 32
-136 10 -24 -8 -63 -17 -87 -20 -24 -2 -52 -9 -62 -14 -26 -14 -26 -56 -1 -70
27 -14 30 -13 41 15 9 24 11 24 97 19 48 -2 128 -10 177 -16 l89 -12 -45 -12
c-75 -19 -90 -38 -40 -50 15 -4 32 -10 37 -15 6 -4 34 3 63 17 47 22 64 25
150 23 119 -3 162 5 162 32 0 23 -13 25 -29 5 -30 -36 -107 -31 -156 9 -26 21
-27 23 -7 18 12 -3 25 -9 28 -14 8 -14 88 -11 124 5 40 17 64 11 80 -19 9 -17
9 -28 1 -44 -13 -23 -73 -55 -123 -66 -27 -6 -29 -9 -14 -17 10 -6 32 -7 48
-4 22 4 34 1 42 -10 8 -11 28 -15 69 -15 73 0 91 6 107 36 15 29 27 31 66 10
16 -8 50 -15 77 -15 26 0 47 -4 47 -10 0 -9 62 -30 93 -30 35 0 16 20 -20 21
-28 1 -22 4 24 10 34 4 74 14 90 22 22 11 74 14 246 12 179 -2 221 0 233 12 7
8 14 19 14 24 0 5 35 9 79 9 73 0 80 -2 95 -25 19 -28 42 -32 66 -10 15 13 23
13 63 1 25 -7 48 -11 51 -8 3 2 11 0 18 -6 8 -6 38 -13 68 -16 47 -4 62 0 105
24 28 16 75 35 105 44 30 9 61 20 69 25 19 12 5 71 -18 71 -9 0 -23 6 -30 12
-6 7 -31 13 -54 14 -174 2 -186 8 -101 44 87 38 256 156 276 194 8 15 1 12
-28 -12 -121 -101 -257 -177 -377 -211 -57 -17 -72 -18 -114 -7 l-48 13 44 8
c112 19 307 107 405 182 89 68 93 106 5 47 -36 -24 -55 -32 -58 -23 -2 7 8 21
23 32 14 10 31 27 37 38 9 18 8 18 -23 5 -18 -8 -41 -17 -51 -20 -12 -4 -16
-12 -13 -23 4 -13 -5 -23 -33 -36 -44 -20 -57 -22 -43 -4 5 6 12 23 14 36 1
13 10 28 18 32 36 19 89 42 139 61 29 11 71 38 92 59 34 34 37 41 29 68 -5 17
-16 41 -24 53 -9 12 -16 31 -16 41 0 18 105 137 121 137 4 0 5 -16 2 -35 -4
-28 -2 -35 11 -35 18 0 19 6 16 71 -1 26 3 50 9 53 8 5 11 -24 11 -94 l0 -101
30 21 c29 21 30 21 30 2 0 -16 -11 -23 -51 -32 -38 -9 -53 -18 -60 -37 -5 -13
-9 -25 -9 -27 0 -1 15 -1 33 2 l32 4 -30 -33 c-16 -19 -48 -53 -69 -76 -31
-33 -36 -43 -22 -43 32 0 88 32 145 85 31 28 74 64 96 78 38 26 175 182 175
201 0 5 -18 -11 -41 -35 l-40 -44 37 73 c21 39 42 72 47 72 4 0 18 -5 30 -11
21 -12 21 -11 5 8 -22 24 -23 37 -4 30 11 -4 13 -1 9 10 -5 13 -3 13 15 4 11
-6 23 -11 26 -11 9 0 74 115 95 168 34 86 9 58 -43 -48 -27 -55 -55 -100 -62
-100 -18 0 -18 21 1 56 16 30 19 54 9 54 -10 0 -94 -90 -94 -101 0 -18 -43
-74 -117 -153 -40 -43 -73 -71 -73 -63 0 9 6 22 13 29 17 17 27 56 16 60 -5 2
-7 18 -3 35 4 18 9 31 13 29 3 -2 26 11 51 29 44 32 49 45 33 85 -3 8 -5 23
-4 32 1 9 -7 35 -18 57 -12 22 -21 44 -21 48 0 5 43 28 95 52 52 24 95 48 95
53 0 15 -43 26 -72 18 -20 -6 -31 -4 -42 9 -20 22 -20 31 -1 31 17 0 20 17 4
22 -5 2 -7 11 -3 21 5 13 10 15 19 7 10 -8 13 -4 12 21 -2 30 2 34 57 56 54
22 60 23 82 8 27 -17 34 -19 34 -6 0 5 -9 11 -20 14 -28 7 -25 19 11 40 41 23
82 23 75 0 -3 -10 -8 -30 -12 -46 -5 -21 -9 -25 -19 -17 -16 13 -21 6 -31 -44
-6 -34 -5 -38 10 -33 13 5 16 1 14 -20 -2 -14 3 -28 10 -30 7 -3 12 3 12 15 0
10 3 22 8 26 7 8 9 14 11 47 1 15 7 19 23 17 36 -5 56 52 63 174 3 57 9 139
13 183 6 71 9 80 27 80 17 0 19 6 16 45 -3 46 -20 137 -42 228 -12 51 -14 53
-43 50 -27 -3 -31 0 -34 25 -3 25 -1 28 16 23 12 -4 24 0 33 10 11 13 10 17
-4 25 -9 6 -17 17 -17 24 0 21 -18 18 -32 -5 -14 -23 -28 -26 -28 -7 0 6 18
25 40 41 40 30 49 49 29 61 -6 4 -8 13 -5 20 3 8 -6 42 -19 77 -13 35 -38 104
-55 153 -43 118 -132 296 -209 416 -34 53 -59 103 -56 111 3 8 -3 22 -14 32
-19 17 -20 17 -36 -8 -16 -24 -15 -27 52 -128 78 -119 173 -301 177 -342 2
-15 8 -31 13 -34 15 -10 73 -197 79 -252 3 -37 0 -51 -16 -68 -12 -12 -18 -27
-14 -33 4 -7 13 -1 23 15 17 26 31 25 31 -1 0 -7 -9 -22 -20 -33 l-20 -20 -36
40 c-44 48 -58 45 -20 -4 27 -36 33 -52 16 -41 -17 10 -210 237 -210 247 0 17
21 7 29 -15 5 -13 17 -29 27 -37 16 -12 17 -12 7 0 -15 17 -17 34 -3 25 6 -3
7 1 4 9 -3 9 -11 14 -17 13 -6 -1 -11 5 -12 13 0 8 -13 21 -30 30 -16 8 -32
16 -34 18 -3 1 0 7 6 13 6 6 18 6 36 0 18 -7 27 -7 27 0 0 5 -7 12 -15 15 -8
4 -13 10 -10 15 3 4 -4 13 -15 19 -18 10 -19 14 -8 27 11 14 11 15 -7 5 -11
-6 -27 -16 -35 -22 -12 -9 -10 -10 9 -5 16 5 21 4 17 -4 -4 -6 -16 -11 -27
-11 -11 0 -19 -7 -19 -17 0 -13 -3 -14 -11 -6 -20 20 -1 59 41 87 45 30 50 37
18 28 -17 -4 -20 -2 -15 11 4 10 1 17 -6 17 -8 0 -7 4 3 10 22 14 5 23 -19 10
-18 -9 -21 -8 -21 8 0 11 -7 25 -15 32 -9 7 -14 19 -11 27 3 8 1 11 -4 8 -6
-3 -10 -1 -10 5 0 6 -4 8 -10 5 -5 -3 -10 -2 -10 3 0 6 7 12 15 16 8 3 15 1
15 -4 0 -6 5 -10 11 -10 6 0 2 12 -9 28 -10 15 -22 36 -26 46 -3 10 -9 16 -13
13 -3 -4 2 -18 11 -31 18 -28 21 -40 7 -32 -5 4 -19 26 -31 51 -12 25 -26 45
-30 45 -9 0 -21 28 -19 43 1 5 -10 21 -24 35 -24 25 -104 238 -94 249 3 2 22
-18 43 -44 54 -69 58 -71 51 -45 -6 23 -5 24 15 5 20 -17 21 -17 15 0 -5 12 9
5 40 -20 31 -25 48 -34 51 -25 2 7 15 26 29 42 l24 29 -90 93 c-49 51 -121
118 -160 148 -39 30 -66 57 -61 58 6 2 10 9 10 17 0 14 -32 28 -105 45 -27 6
-121 45 -207 86 -148 70 -205 94 -270 114 -44 14 -34 -11 17 -43 25 -16 45
-31 45 -33 0 -4 -64 25 -103 47 -24 13 -34 4 -18 -15 9 -11 9 -15 -1 -18 -19
-7 -49 3 -42 13 3 5 0 9 -5 9 -6 0 -11 -8 -11 -18 0 -18 94 -94 171 -138 34
-20 38 -20 63 -5 26 15 28 15 42 -4 8 -11 21 -28 29 -38 8 -9 15 -19 15 -22 0
-12 -48 -3 -75 13 -37 23 -78 34 -68 19 4 -7 -2 -8 -18 -3 -13 5 -32 8 -41 9
-9 1 -15 4 -13 8 5 8 -275 143 -340 163 -27 9 -86 23 -130 31 -44 9 -114 24
-155 34 -91 23 -160 26 -160 8 0 -8 -11 -12 -30 -11 -19 1 -29 -2 -28 -10 3
-13 -43 -62 -54 -58 -5 1 -8 -6 -8 -15 0 -22 -36 -70 -45 -61 -4 3 -2 16 5 27
11 21 1 27 -37 22 -7 -1 -13 2 -13 7 0 14 28 23 35 12 9 -15 25 -12 19 3 -2 7
7 19 22 27 14 8 37 27 49 42 13 16 28 28 32 27 4 -1 15 -1 23 0 13 1 13 2 0
11 -11 7 -12 12 -3 21 8 8 45 8 150 -1 76 -6 188 -15 248 -20 143 -12 178 -12
170 0 -3 6 1 10 9 10 9 0 16 -9 16 -20 0 -11 5 -20 10 -20 6 0 10 7 10 15 0 8
9 15 20 15 39 0 19 17 -32 28 -119 27 -428 59 -428 44z m-69 -115 c-10 -9 -11
-8 -5 6 3 10 9 15 12 12 3 -3 0 -11 -7 -18z m89 -1 c0 -3 -4 -8 -10 -11 -5 -3
-10 -1 -10 4 0 6 5 11 10 11 6 0 10 -2 10 -4z m-179 -41 c1 -17 -18 -17 -25 0
-4 11 -1 15 10 13 8 -2 15 -7 15 -13z m39 -5 c0 -5 -2 -10 -4 -10 -3 0 -8 5
-11 10 -3 6 -1 10 4 10 6 0 11 -4 11 -10z m-231 -4 c-2 -2 -17 -6 -34 -10 -22
-5 -26 -4 -15 4 14 9 59 15 49 6z m156 -6 c-3 -5 -10 -10 -16 -10 -5 0 -9 5
-9 10 0 6 7 10 16 10 8 0 12 -4 9 -10z m-335 -20 c-8 -5 -19 -10 -25 -10 -5 0
-3 5 5 10 8 5 20 10 25 10 6 0 3 -5 -5 -10z m305 -10 c-3 -5 -11 -10 -16 -10
-6 0 -7 5 -4 10 3 6 11 10 16 10 6 0 7 -4 4 -10z m1137 -74 c135 -66 187 -106
135 -106 -13 0 -34 11 -47 25 -24 25 -47 35 -34 13 4 -7 3 -8 -5 -4 -6 4 -9
12 -6 17 6 9 -9 14 -30 9 -5 -1 -7 2 -3 6 8 8 -56 50 -119 78 -24 11 -43 23
-43 28 0 5 3 7 8 5 4 -2 69 -34 144 -71z m-1067 54 c3 -5 1 -10 -4 -10 -6 0
-11 5 -11 10 0 6 2 10 4 10 3 0 8 -4 11 -10z m-165 -12 c0 -5 -10 -12 -22 -17
-24 -9 -71 6 -62 20 6 10 84 7 84 -3z m161 -51 c-10 -9 -11 -8 -5 6 3 10 9 15
12 12 3 -3 0 -11 -7 -18z m-611 -13 c0 -14 -51 -78 -63 -80 -20 -3 -10 30 19
61 21 23 44 33 44 19z m197 0 c-3 -3 -12 -4 -19 -1 -8 3 -5 6 6 6 11 1 17 -2
13 -5z m218 -3 c3 -5 2 -12 -3 -15 -5 -3 -9 1 -9 9 0 17 3 19 12 6z m-581 -53
c-16 -28 -27 -37 -36 -31 -6 3 -1 14 13 24 29 22 33 23 23 7z m1716 -35 c0
-17 -2 -16 -45 4 -21 10 -31 20 -24 24 15 9 69 -13 69 -28z m187 -5 c-3 -8 -6
-5 -6 6 -1 11 2 17 5 13 3 -3 4 -12 1 -19z m-1047 4 c0 -10 -102 -72 -119 -72
-21 0 -1 19 52 50 54 31 67 35 67 22z m1138 -27 c-3 -3 -9 2 -12 12 -6 14 -5
15 5 6 7 -7 10 -15 7 -18z m-822 -6 c6 -5 35 -13 65 -18 l54 -9 -60 0 c-60 -1
-154 30 -124 40 16 6 49 -1 65 -13z m-136 1 c-8 -5 -19 -10 -25 -10 -5 0 -3 5
5 10 8 5 20 10 25 10 6 0 3 -5 -5 -10z m1120 6 c0 -3 -4 -8 -10 -11 -5 -3 -10
-1 -10 4 0 6 5 11 10 11 6 0 10 -2 10 -4z m-2015 -16 c3 -5 -1 -10 -10 -10 -9
0 -13 5 -10 10 3 6 8 10 10 10 2 0 7 -4 10 -10z m1846 -17 c13 -16 12 -17 -3
-4 -17 13 -22 21 -14 21 2 0 10 -8 17 -17z m-1101 2 c0 -6 -77 -45 -90 -45
-20 0 -10 19 18 34 26 14 72 21 72 11z m203 -2 c-7 -2 -19 -2 -25 0 -7 3 -2 5
12 5 14 0 19 -2 13 -5z m1032 -13 c3 -5 0 -7 -9 -4 -11 4 -14 -1 -12 -20 2
-16 -1 -23 -8 -19 -6 3 -6 1 1 -7 10 -11 15 -11 27 0 9 7 13 16 10 21 -13 22
6 6 21 -17 9 -15 12 -24 7 -20 -19 12 -23 -13 -7 -50 17 -40 46 -146 41 -151
-5 -5 -116 106 -116 117 0 5 -6 10 -12 11 -10 0 -10 2 0 6 6 2 12 9 12 14 0 5
-9 4 -19 -3 -11 -7 -17 -16 -14 -22 3 -5 1 -6 -6 -2 -6 4 -8 12 -5 18 3 5 -11
27 -32 49 -37 38 -37 39 -18 54 11 9 31 12 49 9 19 -3 38 1 50 10 24 18 32 19
40 6z m-1135 -10 c0 -5 -7 -10 -16 -10 -8 0 -12 5 -9 10 3 6 10 10 16 10 5 0
9 -4 9 -10z m167 -20 c93 -12 119 -20 62 -20 -19 0 -40 -5 -47 -12 -9 -9 -12
-9 -12 0 0 7 -7 12 -16 12 -9 0 -14 -6 -12 -12 6 -18 49 -22 60 -6 7 10 11 10
15 1 2 -7 13 -13 24 -13 10 0 19 -4 19 -10 0 -20 -50 -22 -242 -7 -16 1 -26 7
-25 12 2 6 -3 15 -12 22 -22 16 -11 23 19 10 34 -14 90 -18 90 -6 0 5 10 9 23
10 21 0 21 1 2 9 -11 4 -24 4 -29 -1 -16 -15 -26 -10 -19 8 5 13 2 15 -11 10
-11 -4 -15 -3 -11 4 4 6 13 8 21 5 8 -3 53 -10 101 -16z m-1387 -14 c0 -2 -8
-10 -17 -17 -16 -13 -17 -12 -4 4 13 16 21 21 21 13z m1155 -26 c7 -11 -42
-37 -51 -27 -9 9 15 37 32 37 7 0 16 -4 19 -10z m-1231 -35 c-10 -8 -23 -14
-29 -14 -5 0 -1 6 9 14 11 8 24 15 30 15 5 0 1 -7 -10 -15z m276 2 c0 -2 -10
-12 -22 -23 l-23 -19 19 23 c18 21 26 27 26 19z m1014 -22 c3 -8 1 -15 -4 -15
-6 0 -10 7 -10 15 0 8 2 15 4 15 2 0 6 -7 10 -15z m126 -29 c0 -2 -7 -7 -16
-10 -8 -3 -12 -2 -9 4 6 10 25 14 25 6z m-105 -45 c-6 -5 -25 10 -25 20 0 5 6
4 14 -3 8 -7 12 -15 11 -17z m21 -35 c-4 7 6 11 28 10 19 0 34 -3 34 -6 -2
-27 30 -42 94 -44 30 -1 51 -16 22 -16 -11 0 -26 -6 -33 -12 -11 -11 -12 -10
-6 0 4 9 2 12 -6 11 -8 -2 -24 2 -36 9 -14 8 -23 9 -23 3 0 -9 46 -39 64 -42
3 -1 33 -16 68 -34 38 -20 62 -38 60 -46 -2 -8 0 -10 5 -6 11 12 11 31 -2 39
-6 5 -3 8 8 8 9 0 18 -8 18 -17 1 -17 2 -17 6 0 4 14 8 16 19 6 11 -9 14 -7
14 10 0 15 6 21 21 21 17 0 20 -5 17 -25 -3 -13 -1 -22 3 -19 5 3 9 14 9 25 0
27 22 24 51 -8 13 -14 19 -23 13 -20 -7 4 -17 0 -24 -8 -7 -8 -9 -15 -5 -15 4
0 1 -8 -6 -17 -7 -10 -9 -15 -5 -11 5 4 14 0 21 -9 20 -27 44 -9 41 31 -2 20
3 45 11 56 13 19 16 19 43 5 18 -9 56 -15 98 -15 54 0 75 -4 95 -20 36 -28 39
-25 16 14 l-20 34 36 6 c19 4 35 11 35 16 0 5 15 10 33 12 25 2 31 7 29 22 -4
22 0 20 55 -19 59 -42 57 -59 -7 -53 -58 6 -78 -7 -53 -34 9 -10 13 -18 8 -18
-4 0 -17 12 -28 27 l-21 27 -6 -25 c-4 -13 0 -43 9 -67 14 -38 14 -44 1 -52
-13 -8 -13 -10 1 -10 8 0 26 -11 39 -25 13 -14 33 -25 44 -25 19 -1 18 -3 -7
-22 -27 -20 -27 -21 -10 -38 10 -9 25 -27 33 -40 8 -12 25 -34 37 -48 30 -35
29 -39 -9 -47 -18 -4 -38 -12 -45 -17 -22 -18 -116 -17 -188 2 -38 11 -122 29
-185 40 -63 12 -122 24 -130 27 -8 4 -26 8 -40 9 -14 2 -37 5 -52 8 -19 4 -30
0 -36 -11 -9 -14 -16 -15 -69 -4 -90 19 -92 22 -64 74 23 43 23 45 7 93 -9 27
-43 96 -76 153 -61 106 -67 121 -50 121 6 0 10 -4 10 -9 0 -5 12 -11 26 -14
19 -3 24 -1 20 10 -3 8 -6 19 -6 25 0 6 -13 8 -35 4 -19 -4 -35 -5 -35 -2 0 2
-3 13 -6 23 -6 16 -5 16 10 -2 10 -11 15 -15 12 -9z m1160 -103 c-10 -10 -19
5 -10 18 6 11 8 11 12 0 2 -7 1 -15 -2 -18z m-862 -2 c4 -5 -3 -7 -14 -4 -23
6 -26 13 -6 13 8 0 17 -4 20 -9z m-254 -121 c0 -5 -2 -10 -4 -10 -3 0 -8 5
-11 10 -3 6 -1 10 4 10 6 0 11 -4 11 -10z m-1464 -47 c-26 -67 -90 -202 -94
-198 -3 2 12 52 33 110 25 70 42 105 52 105 10 0 13 -6 9 -17z m1631 -239 c-3
-3 -12 -4 -19 -1 -8 3 -5 6 6 6 11 1 17 -2 13 -5z m893 -49 c10 -12 10 -19 2
-27 -7 -7 -7 -19 -1 -35 9 -23 8 -24 -26 -17 -28 5 -35 3 -35 -10 0 -27 59
-20 110 14 l44 29 23 -21 24 -22 -56 -51 c-30 -28 -55 -55 -55 -60 0 -5 5 -4
12 3 8 8 15 8 24 2 8 -7 13 -6 17 4 4 10 1 13 -9 9 -7 -3 -14 -1 -14 3 0 5 42
34 93 66 l92 56 3 -35 c2 -22 -3 -42 -12 -52 -9 -10 -13 -21 -9 -24 3 -4 2 -7
-4 -7 -5 0 -18 -18 -28 -39 -10 -22 -24 -42 -31 -45 -8 -3 -14 -10 -14 -16 0
-6 10 -2 22 10 12 11 30 20 40 20 11 0 16 5 13 10 -3 6 -2 10 2 10 16 0 185
-178 181 -190 -2 -8 -25 8 -57 39 -53 52 -79 65 -41 21 11 -13 18 -30 15 -37
-3 -9 0 -11 7 -7 6 4 17 -1 24 -11 7 -9 25 -18 41 -20 15 -1 44 -16 63 -34
l36 -31 -51 -53 c-99 -102 -100 -231 -3 -326 42 -42 70 -53 138 -53 49 -1 84
10 163 50 4 2 7 -10 7 -27 0 -26 -4 -31 -24 -31 -14 0 -38 -12 -56 -26 -29
-25 -33 -26 -78 -15 -26 7 -64 23 -84 37 -21 13 -43 24 -49 24 -24 0 -68 -42
-79 -75 -9 -27 -17 -35 -36 -35 -28 0 -30 8 -6 26 15 12 14 13 -13 15 -16 0
-57 2 -90 4 -33 1 -80 9 -105 18 -73 24 -110 30 -110 17 0 -6 -8 -10 -17 -9
-10 1 -29 -3 -43 -8 -30 -13 -41 -8 -33 14 5 12 2 15 -9 10 -26 -10 -62 37
-54 70 18 71 17 78 -8 116 -24 35 -25 40 -11 60 8 12 15 26 15 32 0 5 -9 -4
-19 -22 l-20 -31 -63 19 c-35 11 -74 28 -88 38 -34 24 -38 71 -9 97 28 25 113
25 151 0 32 -21 43 -9 33 41 -4 24 -2 38 6 44 10 6 9 14 -1 38 -24 59 13 52
48 -9 12 -22 27 -40 31 -40 13 0 81 62 81 74 0 5 -9 0 -20 -12 -12 -12 -25
-22 -29 -22 -12 0 -21 41 -15 67 4 14 -3 33 -20 56 -14 19 -26 37 -26 42 0 4
-7 13 -16 19 -12 9 -7 11 28 9 l43 -2 -35 10 c-19 6 -43 15 -53 21 -19 9 -32
4 -32 -13 0 -17 -18 -10 -29 12 -16 32 -40 38 -31 8 4 -13 4 -21 1 -17 -4 3
-13 31 -20 62 l-13 56 33 0 c19 0 33 -3 33 -7 -3 -21 3 -33 16 -33 13 0 14 4
5 20 -6 11 -8 30 -5 43 4 12 1 36 -5 51 -13 35 -11 37 37 46 68 14 130 11 143
-5z m533 -379 c31 -38 53 -74 50 -79 -3 -6 -1 -7 4 -4 6 4 17 -1 24 -10 8 -9
10 -14 4 -11 -5 3 -28 3 -50 -1 -37 -6 -42 -4 -74 34 -19 22 -69 76 -110 120
-61 64 -64 69 -16 22 33 -31 64 -57 68 -57 14 0 6 16 -28 53 -33 36 -34 40
-19 62 16 25 5 43 -18 29 -9 -6 -9 -3 0 9 15 18 4 30 165 -167z m-746 92 c-3
-8 -6 -5 -6 6 -1 11 2 17 5 13 3 -3 4 -12 1 -19z m763 -267 c-8 -16 -5 -25 16
-48 24 -26 26 -26 20 -5 -4 12 -5 31 -1 42 5 16 9 18 25 8 10 -7 18 -14 18
-17 -2 -19 4 -22 18 -11 8 8 14 9 12 4 -1 -5 4 -19 12 -31 13 -19 15 -20 26
-5 10 14 15 12 40 -18 49 -57 53 -64 47 -95 -9 -51 -24 -95 -34 -95 -12 0 -12
77 1 85 29 18 3 26 -77 23 -70 -2 -88 -6 -88 -18 0 -11 15 -16 63 -18 l63 -3
-3 -46 c-4 -58 -35 -84 -107 -91 -58 -5 -129 23 -155 63 -43 66 -44 155 -3
216 38 56 134 110 107 60z m-745 -381 c-3 -5 -11 -10 -16 -10 -6 0 -7 5 -4 10
3 6 11 10 16 10 6 0 7 -4 4 -10z m-368 -125 c-4 -8 -11 -15 -17 -15 -14 0 -13
27 3 33 16 6 21 1 14 -18z m633 -28 c0 -10 -4 -15 -10 -12 -5 3 -10 18 -10 33
0 21 2 24 10 12 5 -8 10 -23 10 -33z m541 6 c13 -17 13 -17 -6 -3 -11 8 -22
16 -24 17 -2 2 0 3 6 3 6 0 17 -8 24 -17z m149 -83 c0 -9 -42 -22 -48 -15 -3
3 1 11 7 19 12 14 41 12 41 -4z m-1513 -16 c-3 -3 -12 -4 -19 -1 -8 3 -5 6 6
6 11 1 17 -2 13 -5z m-137 -116 c1 -21 -34 -1 -43 25 -6 17 -6 17 18 0 13 -10
25 -21 25 -25z m70 -2 c0 -11 -19 -15 -25 -6 -3 5 1 10 9 10 9 0 16 -2 16 -4z
m130 -36 c0 -5 -5 -10 -11 -10 -5 0 -7 5 -4 10 3 6 8 10 11 10 2 0 4 -4 4 -10z
m1080 6 c0 -2 -7 -7 -16 -10 -8 -3 -12 -2 -9 4 6 10 25 14 25 6z m-1075 -36
c3 -5 1 -10 -4 -10 -6 0 -11 5 -11 10 0 6 2 10 4 10 3 0 8 -4 11 -10z m-185
-10 c0 -5 -4 -10 -10 -10 -5 0 -10 5 -10 10 0 6 5 10 10 10 6 0 10 -4 10 -10z
m-1562 -97 c-15 -2 -42 -2 -60 0 -18 2 -6 4 27 4 33 0 48 -2 33 -4z m2689
-330 c-3 -10 -5 -2 -5 17 0 19 2 27 5 18 2 -10 2 -26 0 -35z m-1013 -208 c3
-8 10 -15 17 -15 6 0 9 7 5 15 -3 8 -1 15 5 15 6 0 13 -9 16 -19 3 -11 17 -22
31 -26 26 -7 24 -8 -25 -28 -29 -12 -53 -28 -53 -34 0 -8 -8 -5 -20 7 -11 11
-30 20 -42 20 -21 1 -85 46 -76 55 4 4 93 22 119 24 9 0 19 -6 23 -14z m140 4
c-3 -6 -17 -9 -30 -6 -13 2 -25 -1 -27 -6 -2 -6 -6 -3 -10 6 -5 14 0 17 34 17
27 0 38 -4 33 -11z m-301 -26 c-7 -2 -21 -2 -30 0 -10 3 -4 5 12 5 17 0 24 -2
18 -5z m-1362 -110 c10 -12 5 -11 -18 6 -18 12 -33 24 -33 27 0 9 37 -15 51
-33z m1757 19 c6 -18 -15 -14 -22 4 -4 10 -1 14 6 12 6 -2 14 -10 16 -16z
m-1529 -433 c11 -18 11 -23 -1 -30 -7 -5 -8 -9 -3 -9 14 0 -17 -20 -32 -20 -7
0 -12 3 -11 8 0 4 -2 15 -7 25 -8 18 9 47 29 47 6 0 17 -10 25 -21z m-89 -89
c0 -13 -48 -36 -56 -27 -4 3 -4 13 -1 22 7 17 57 21 57 5z m580 0 c0 -5 -7
-10 -15 -10 -8 0 -15 5 -15 10 0 6 7 10 15 10 8 0 15 -4 15 -10z m998 -39 c3
-8 -1 -12 -9 -9 -7 2 -15 10 -17 17 -3 8 1 12 9 9 7 -2 15 -10 17 -17z m-1188
-45 c0 -11 -19 -15 -25 -6 -3 5 1 10 9 10 9 0 16 -2 16 -4z"/>
<path d="M2645 4020 c-3 -5 1 -10 9 -10 9 0 16 5 16 10 0 6 -4 10 -9 10 -6 0
-13 -4 -16 -10z"/>
<path d="M2904 3691 c8 -12 -19 -33 -29 -23 -5 4 -5 1 -1 -6 6 -11 12 -10 27
4 21 19 25 34 8 34 -5 0 -8 -4 -5 -9z"/>
<path d="M3364 3444 c-1 -16 3 -24 15 -23 9 0 11 3 4 5 -7 3 -10 11 -7 19 3 7
2 15 -3 18 -4 3 -9 -6 -9 -19z"/>
<path d="M3423 3399 c-2 -23 3 -25 10 -4 4 8 3 16 -1 19 -4 3 -9 -4 -9 -15z"/>
<path d="M3440 3379 c0 -4 6 -9 13 -12 8 -3 14 0 14 7 0 7 -6 13 -14 13 -7 0
-13 -4 -13 -8z"/>
<path d="M3781 2778 c-23 -60 -93 -232 -125 -305 -22 -52 -31 -85 -25 -89 15
-9 31 10 50 59 l17 42 109 3 110 3 20 -53 c12 -31 27 -54 37 -56 22 -5 18 11
-56 213 -80 217 -74 205 -103 205 -17 0 -28 -7 -34 -22z m89 -170 l29 -78 -89
0 -89 0 44 106 c25 59 45 110 45 113 1 9 29 -57 60 -141z"/>
<path d="M3542 2670 c0 -14 2 -19 5 -12 2 6 2 18 0 25 -3 6 -5 1 -5 -13z"/>
<path d="M4065 3020 c3 -5 11 -10 16 -10 6 0 7 5 4 10 -3 6 -11 10 -16 10 -6
0 -7 -4 -4 -10z"/>
<path d="M4146 2924 c-10 -26 -7 -34 13 -34 26 0 36 17 21 35 -16 19 -26 19
-34 -1z"/>
<path d="M2375 4490 c3 -5 13 -10 21 -10 8 0 14 5 14 10 0 6 -9 10 -21 10 -11
0 -17 -4 -14 -10z"/>
<path d="M1156 4264 c-13 -12 -14 -20 -6 -28 13 -13 45 4 45 24 0 21 -21 23
-39 4z"/>
<path d="M910 3960 c0 -5 5 -10 10 -10 6 0 10 5 10 10 0 6 -4 10 -10 10 -5 0
-10 -4 -10 -10z"/>
<path d="M785 3890 c4 -6 11 -8 16 -5 14 9 11 15 -7 15 -8 0 -12 -5 -9 -10z"/>
<path d="M4021 3842 c-31 -45 -25 -59 9 -22 19 20 27 37 22 42 -6 6 -18 -2
-31 -20z"/>
<path d="M1927 3814 c-13 -13 -7 -24 14 -24 11 0 19 5 17 12 -5 14 -22 21 -31
12z"/>
<path d="M405 3740 c-17 -19 -17 -21 0 -40 24 -27 43 -25 51 5 13 52 -17 72
-51 35z"/>
<path d="M1972 3749 c2 -7 10 -15 17 -17 8 -3 12 1 9 9 -2 7 -10 15 -17 17 -8
3 -12 -1 -9 -9z"/>
<path d="M2065 3749 c-4 -6 -4 -13 -1 -16 8 -8 36 5 36 17 0 13 -27 13 -35 -1z"/>
<path d="M620 3730 c0 -5 5 -10 10 -10 6 0 10 5 10 10 0 6 -4 10 -10 10 -5 0
-10 -4 -10 -10z"/>
<path d="M822 3718 c-16 -16 -15 -38 2 -38 13 0 26 20 26 41 0 13 -14 11 -28
-3z"/>
<path d="M2275 3721 c-19 -8 -18 -9 5 -12 20 -3 26 -11 28 -36 3 -27 7 -33 28
-33 15 0 24 6 24 15 0 8 -6 15 -14 15 -7 0 -16 14 -19 30 -7 31 -17 35 -52 21z"/>
<path d="M1036 3713 c-11 -11 -6 -23 9 -23 8 0 15 4 15 9 0 13 -16 22 -24 14z"/>
<path d="M980 3680 c0 -6 17 -10 37 -10 43 0 41 5 -4 13 -19 4 -33 2 -33 -3z"/>
<path d="M709 3375 c-42 -94 -76 -200 -89 -279 -14 -90 -6 -97 10 -9 12 64 67
231 104 316 9 20 14 37 11 37 -4 0 -19 -29 -36 -65z"/>
<path d="M560 3400 c0 -5 5 -10 10 -10 6 0 10 5 10 10 0 6 -4 10 -10 10 -5 0
-10 -4 -10 -10z"/>
<path d="M2885 3220 c5 -8 2 -18 -8 -25 -18 -13 -60 -116 -51 -124 4 -3 11 2
18 13 6 10 23 33 37 52 26 34 29 76 6 91 -6 4 -7 1 -2 -7z"/>
<path d="M560 3210 c0 -5 5 -10 10 -10 6 0 10 5 10 10 0 6 -4 10 -10 10 -5 0
-10 -4 -10 -10z"/>
<path d="M1365 3210 c-3 -5 -1 -10 4 -10 6 0 11 5 11 10 0 6 -2 10 -4 10 -3 0
-8 -4 -11 -10z"/>
<path d="M1333 3162 c4 -20 1 -34 -8 -42 -31 -26 -17 -40 35 -37 38 1 50 6 50
18 0 21 -35 66 -62 80 -20 11 -21 9 -15 -19z"/>
<path d="M4452 3037 c15 -78 30 -163 33 -189 4 -32 11 -48 21 -48 18 0 18 17
-1 123 -15 89 -60 243 -73 251 -4 2 5 -60 20 -137z"/>
<path d="M4480 3180 c0 -3 9 -29 20 -57 11 -29 27 -92 35 -140 8 -47 18 -89
21 -92 12 -12 -8 132 -26 184 -17 49 -49 116 -50 105z"/>
<path d="M930 3113 c-29 -78 -73 -243 -66 -250 7 -7 8 -2 40 118 14 53 33 115
41 139 23 66 10 60 -15 -7z"/>
<path d="M2925 3161 c-6 -11 9 -23 19 -14 9 9 7 23 -3 23 -6 0 -12 -4 -16 -9z"/>
<path d="M785 3130 c3 -5 10 -10 16 -10 5 0 9 5 9 10 0 6 -7 10 -16 10 -8 0
-12 -4 -9 -10z"/>
<path d="M3360 3120 c0 -5 5 -10 11 -10 5 0 7 5 4 10 -3 6 -8 10 -11 10 -2 0
-4 -4 -4 -10z"/>
<path d="M4190 3097 c0 -8 7 -17 15 -21 8 -3 15 -2 15 3 0 5 -7 14 -15 21 -12
10 -15 10 -15 -3z"/>
<path d="M815 2940 c-7 -12 2 -30 16 -30 12 0 12 27 0 35 -5 3 -12 1 -16 -5z"/>
<path d="M800 2870 c0 -5 5 -10 10 -10 6 0 10 5 10 10 0 6 -4 10 -10 10 -5 0
-10 -4 -10 -10z"/>
<path d="M2807 2874 c-4 -4 -7 -14 -7 -23 0 -11 3 -12 11 -4 6 6 10 16 7 23
-2 6 -7 8 -11 4z"/>
<path d="M639 2831 c-10 -29 -15 -31 -57 -31 -60 0 -108 -29 -128 -76 -27 -66
13 -121 112 -154 81 -27 114 -53 114 -90 0 -15 -7 -33 -15 -40 -21 -17 -29 -7
-15 19 8 17 8 21 -4 21 -8 0 -17 8 -20 18 -3 9 -4 -8 -3 -38 l2 -55 -53 -3
c-37 -2 -62 2 -79 13 -28 19 -56 13 -47 -9 8 -22 78 -46 134 -46 44 0 50 -3
50 -20 0 -33 32 -150 40 -150 5 0 0 38 -10 84 l-19 85 40 39 c34 34 39 46 39
84 0 54 -21 80 -82 101 -24 8 -61 21 -82 29 -84 29 -97 103 -23 143 32 18 40
18 84 7 26 -7 55 -20 64 -28 18 -16 49 -19 49 -4 0 5 -16 22 -35 37 -29 23
-34 33 -30 55 9 38 -13 46 -26 9z"/>
<path d="M940 2835 c0 -9 5 -15 11 -13 6 2 11 8 11 13 0 5 -5 11 -11 13 -6 2
-11 -4 -11 -13z"/>
<path d="M780 2809 c0 -5 5 -7 11 -3 8 4 9 -1 4 -15 -10 -31 13 -81 36 -81 19
0 19 -1 2 -27 -13 -20 -18 -47 -18 -98 0 -62 4 -78 30 -121 37 -61 114 -104
185 -104 108 0 207 90 218 198 17 180 -161 300 -324 217 l-49 -25 -29 32 c-29
32 -66 47 -66 27z m313 -53 c50 -18 76 -42 98 -91 34 -73 22 -154 -29 -208
-38 -41 -74 -57 -126 -57 -80 0 -131 31 -167 102 -20 38 -26 94 -10 83 5 -3
12 -1 16 4 3 5 -2 14 -11 19 -16 9 -15 13 4 54 43 87 135 126 225 94z"/>
<path d="M940 2659 c0 -6 -6 -9 -14 -6 -22 9 -28 -5 -9 -25 25 -27 42 -22 41
12 -1 27 -18 45 -18 19z"/>
<path d="M910 2586 c0 -9 5 -16 10 -16 6 0 10 4 10 9 0 6 -4 13 -10 16 -5 3
-10 -1 -10 -9z"/>
<path d="M1465 2781 c-80 -37 -125 -111 -125 -203 1 -135 109 -230 244 -214
53 6 126 47 126 71 0 21 -16 19 -51 -7 -25 -19 -44 -23 -102 -23 -85 0 -125
22 -158 88 -30 59 -24 151 14 201 56 72 152 92 236 48 49 -26 83 -23 60 5 -42
50 -170 68 -244 34z"/>
<path d="M1925 2781 c-113 -51 -156 -185 -97 -302 38 -76 92 -112 176 -117 69
-5 151 22 162 53 11 27 -5 29 -45 7 -46 -26 -137 -30 -179 -8 -96 50 -132 179
-74 265 65 96 169 116 263 50 24 -17 28 -17 40 -3 15 18 9 23 -56 54 -52 25
-137 25 -190 1z"/>
<path d="M2358 2793 l-78 -4 0 -215 0 -215 128 3 c118 3 127 4 127 22 0 19 -7
20 -107 17 l-108 -3 0 81 0 80 97 3 c84 3 98 6 101 21 3 15 -7 17 -97 17
l-101 0 0 80 0 80 115 0 c108 0 115 1 115 20 0 22 6 21 -192 13z"/>
<path d="M2670 2581 c0 -214 1 -221 20 -221 25 0 33 30 28 114 l-3 66 50 0 50
-1 60 -87 c41 -59 68 -88 83 -90 30 -4 28 12 -6 56 -16 20 -43 57 -61 82 l-31
44 27 14 c100 51 120 157 40 214 -28 20 -47 23 -144 27 l-113 3 0 -221z m209
168 c59 -21 71 -91 21 -132 -30 -26 -109 -43 -161 -35 -23 3 -24 6 -27 91 l-3
87 69 0 c38 0 83 -5 101 -11z"/>
<path d="M4577 2783 c-9 -8 -9 -325 -1 -375 l7 -38 123 0 c104 0 124 2 124 15
0 12 -19 15 -110 15 l-110 0 0 85 0 85 90 0 c73 0 90 3 90 15 0 12 -17 15 -90
15 l-90 0 0 80 0 79 112 3 c78 2 113 7 116 16 3 9 -27 12 -125 12 -72 0 -133
-3 -136 -7z"/>
<path d="M3323 2539 c11 -7 23 -7 35 0 14 9 11 10 -18 10 -29 0 -32 -1 -17
-10z"/>
<path d="M3395 2540 c-3 -5 -1 -10 6 -10 6 0 9 -8 6 -20 -8 -32 10 -33 21 -1
8 24 7 31 -5 35 -19 8 -21 8 -28 -4z"/>
<path d="M2111 2251 c-21 -51 -28 -93 -12 -75 12 12 44 114 38 120 -2 3 -14
-18 -26 -45z"/>
<path d="M2298 2175 c-63 -63 -127 -115 -139 -115 -5 0 -9 7 -9 15 0 9 -8 14
-22 12 -17 -1 -24 4 -26 21 -2 14 -10 22 -23 22 -10 0 -19 -2 -19 -5 0 -8 -40
-187 -46 -207 -3 -10 -1 -18 5 -18 22 0 351 301 351 322 0 18 -19 6 -72 -47z"/>
<path d="M2202 2030 c-89 -85 -159 -156 -157 -158 15 -15 331 276 323 298 -3
9 -59 -39 -166 -140z"/>
<path d="M650 2156 c0 -8 16 -61 36 -118 46 -133 147 -339 223 -453 61 -92
279 -348 304 -358 27 -10 14 50 -18 85 l-30 32 38 -27 c46 -34 48 -27 5 13
-18 16 -27 30 -20 30 23 0 12 20 -12 20 -14 0 -28 5 -31 10 -3 6 -2 10 3 10 4
0 18 9 29 19 17 16 20 28 16 68 -7 74 -12 95 -24 87 -16 -9 -31 18 -16 28 9 6
7 12 -7 23 -29 22 -43 18 -49 -12 -4 -20 2 -34 21 -54 33 -36 38 -69 12 -97
-12 -12 -24 -22 -28 -22 -16 0 -41 27 -101 108 -74 101 -131 206 -211 383 -83
184 -140 275 -140 225z"/>
<path d="M666 2010 c11 -42 82 -217 116 -283 29 -59 105 -177 113 -177 2 0
-21 43 -51 94 -30 52 -79 153 -109 223 -31 70 -60 137 -65 148 -9 17 -9 16 -4
-5z"/>
<path d="M815 1915 c34 -61 104 -155 116 -155 8 0 -111 172 -134 195 -6 6 2
-12 18 -40z"/>
<path d="M2720 1950 c0 -5 5 -10 10 -10 6 0 10 5 10 10 0 6 -4 10 -10 10 -5 0
-10 -4 -10 -10z"/>
<path d="M2537 1908 c-4 -16 -18 -31 -34 -37 l-28 -11 30 6 c39 7 48 16 43 45
-3 24 -4 24 -11 -3z"/>
<path d="M2440 1840 c0 -5 5 -10 10 -10 6 0 10 5 10 10 0 6 -4 10 -10 10 -5 0
-10 -4 -10 -10z"/>
<path d="M1109 1660 c13 -11 33 -20 45 -19 14 0 16 2 6 6 -8 3 -28 12 -45 20
l-30 14 24 -21z"/>
<path d="M2425 1650 c-3 -6 1 -7 9 -4 18 7 21 14 7 14 -6 0 -13 -4 -16 -10z"/>
<path d="M4100 1656 c0 -2 7 -7 16 -10 8 -3 12 -2 9 4 -6 10 -25 14 -25 6z"/>
<path d="M2000 1575 c0 -21 168 -215 186 -215 16 0 19 16 4 25 -5 3 -47 47
-92 98 -79 89 -98 106 -98 92z"/>
<path d="M582 1038 c-20 -25 -22 -55 -6 -86 13 -27 18 -30 35 -22 15 9 19 22
19 65 0 47 -3 55 -19 55 -10 0 -23 -6 -29 -12z"/>
<path d="M1512 944 c23 -26 82 -60 76 -44 -2 7 -24 24 -48 38 -36 21 -42 22
-28 6z"/>
<path d="M4250 914 c0 -8 32 -33 43 -34 5 0 5 4 2 10 -8 13 -45 33 -45 24z"/>
<path d="M1630 875 c0 -8 5 -15 10 -15 6 0 10 7 10 15 0 8 -4 15 -10 15 -5 0
-10 -7 -10 -15z"/>
<path d="M3615 870 c-4 -7 -3 -16 2 -21 12 -12 45 0 40 15 -5 15 -34 19 -42 6z"/>
<path d="M4290 840 c0 -5 5 -10 10 -10 6 0 10 5 10 10 0 6 -4 10 -10 10 -5 0
-10 -4 -10 -10z"/>
<path d="M3610 795 c0 -9 5 -15 11 -13 6 2 11 8 11 13 0 5 -5 11 -11 13 -6 2
-11 -4 -11 -13z"/>
<path d="M3531 786 c-13 -15 12 -26 61 -26 15 0 30 -5 34 -11 3 -6 19 -9 34
-7 25 4 27 2 20 -18 -5 -12 -6 -31 -4 -41 3 -11 -2 -27 -10 -36 -20 -19 -21
-37 -2 -37 8 0 22 -3 31 -6 11 -5 18 0 22 15 4 16 13 21 39 21 24 0 34 5 34
15 0 8 5 15 10 15 6 0 10 -7 10 -16 0 -12 6 -15 23 -10 12 3 30 6 40 6 9 0 17
4 17 9 0 5 -8 12 -17 14 -14 4 -12 5 5 6 13 1 22 -5 22 -13 0 -8 7 -16 15 -20
11 -4 15 2 15 25 0 23 6 32 27 40 14 5 33 7 40 5 25 -10 28 26 4 46 -29 23
-91 24 -138 2 -33 -16 -35 -16 -49 5 -13 19 -24 22 -67 19 -30 -2 -51 -8 -50
-14 2 -12 -85 -2 -129 14 -20 8 -29 8 -37 -2z"/>
<path d="M460 771 c0 -5 7 -11 15 -15 9 -3 15 0 15 9 0 8 -7 15 -15 15 -8 0
-15 -4 -15 -9z"/>
<path d="M782 751 c-11 -7 -11 -9 0 -13 18 -7 77 2 84 13 7 11 -67 12 -84 0z"/>
<path d="M1100 636 c0 -12 10 -16 37 -16 41 0 36 14 -9 25 -22 6 -28 4 -28 -9z"/>
<path d="M1385 640 c-3 -5 1 -10 9 -10 9 0 16 5 16 10 0 6 -4 10 -9 10 -6 0
-13 -4 -16 -10z"/>
<path d="M926 605 c-3 -8 -12 -12 -21 -9 -9 4 -23 0 -33 -9 -9 -8 -48 -28 -86
-45 -57 -25 -65 -31 -47 -37 20 -6 83 10 108 28 13 9 90 -8 111 -25 6 -6 12
-7 12 -2 0 5 4 3 9 -4 6 -11 10 -10 15 4 4 10 4 16 1 12 -4 -3 -34 4 -68 15
-57 20 -59 22 -31 25 22 2 34 9 37 24 5 16 11 19 31 14 19 -5 26 -2 26 9 0 20
-56 20 -64 0z"/>
<path d="M2660 560 c0 -13 66 -24 87 -15 16 7 15 9 -7 15 -36 11 -80 12 -80 0z"/>
<path d="M2195 520 c3 -5 8 -10 11 -10 2 0 4 5 4 10 0 6 -5 10 -11 10 -5 0 -7
-4 -4 -10z"/>
<path d="M2050 310 c0 -5 7 -10 15 -10 8 0 15 5 15 10 0 6 -7 10 -15 10 -8 0
-15 -4 -15 -10z"/>
</g>
</svg>
